<svg id="Layer_1" xmlns="http://www.w3.org/2000/svg" width="451" height="469.1" viewBox="0 0 451 469.1"><style>.st0{opacity:.25;fill:#89d1e7}</style><path class="st0" d="M347.7 464.9l8.9 4.1h4.4l.8-1.7-12.5-5.8zM445.3 469h5.9v-1c-.3 0-.7-.1-1-.1-1.8.1-3.4.4-4.9 1.1zM387.9 439.9h21.3v2.2h-21.3zM448.3 246.6l2.9.4v-3.7c-.3 0-.5.1-.8.2-.8.3-1.8 1.2-2.1 3.1zM441.6 369.8c-2.2.6-4.2 1.2-5.7.7-.6-.2-.9-.4-1-.6-.1-.4.1-1.7 2.8-5 .3-.4.7-.8 1.1-1.2 2.3-2.5 6.4-7 2.5-11.5-1.8-2-5.4-2.7-8-2.3-2.2.3-3.7 1.4-4.4 3l3.5 1.5c.1-.3.7-.6 1.5-.7 1.8-.3 3.9.3 4.6 1 1.5 1.7.4 3.3-2.5 6.5-.4.5-.9.9-1.2 1.4-2.3 2.8-4.3 5.7-3.6 8.4.3 1 1.1 2.4 3.4 3.2 2.6.9 5.3.1 7.9-.7 2.8-.8 5.2-1.5 7.1-.3.8.5 1.3 1 1.4 1.5v-5c-3-1.8-6.4-.8-9.4.1zM442.4 391.2l3.5-1.4c-.6-1.5 1.9-4.1 4-6.4.4-.5.9-.9 1.3-1.4v-6.5c-.4 1.5-2.4 3.6-4 5.3-3 3.1-6.4 6.6-4.8 10.4zM.2 426.8v.4l3.1 1.8 6.8-12-3.3-1.9z"/><path transform="rotate(-60.536 394.966 235.293)" class="st0" d="M388.1 233.4h13.8v3.7h-13.8z"/><path class="st0" d="M83.7 467.9l.7 1.1h5l8.2-4.7-1.9-3.3zM115.4 305.3c0 5.5 4.5 10 10 10v-3.7c-3.4 0-6.2-2.8-6.2-6.2 0-3.4 2.8-6.2 6.2-6.2v-3.7c-5.5-.2-10 4.3-10 9.8zM.2 469h3.9c-1.2-.5-2.5-.9-3.9-1v1zM36.2 291.9c-6.5 0-11.9 5.3-11.9 11.9s5.3 11.9 11.9 11.9 11.9-5.3 11.9-11.9-5.3-11.9-11.9-11.9zm0 20c-4.5 0-8.1-3.6-8.1-8.1s3.6-8.1 8.1-8.1 8.1 3.6 8.1 8.1-3.6 8.1-8.1 8.1zM27.8 249c.8-.8 1-.9 1.6-.9.6.1 1.1.6 1.9 1.4 1 1.1 2.3 2.5 4.5 3l.7-3.7c-1-.2-1.6-.8-2.4-1.8-1-1.1-2.2-2.4-4.2-2.6-2.4-.3-3.8 1-4.6 1.9-.4.4-.7.7-1.1.9-1.8.8-2.2.4-3.4-.6-1-.9-2.4-2.1-4.8-2.3-2.6-.2-4.1 1.3-5.1 2.2-1.1 1-1.3 1.3-2.7.6-.2-.1-.8-.5-1.2-.9-2-1.5-4.5-3.4-6.7-3.1v3.7l.8.1v-.1c1 .3 2.9 1.7 3.6 2.3.8.6 1.4 1 1.9 1.3 3.7 1.7 5.6-.1 6.9-1.3.9-.9 1.3-1.3 2.3-1.2 1.1.1 1.7.6 2.5 1.3 1.4 1.2 3.3 3 7.3 1.3 1-.3 1.7-.9 2.2-1.5zM4 374.4c-.2-1.7-1.3-3.2-3.1-4.4-.2-.1-.4-.3-.6-.4v5c0 .1 0 .1.1.2 0 .2 0 .4-.1.6v6.5c2.1-2.4 4-4.8 3.7-7.5zM53.2 469h4.4l-2.2-3.8z"/><path transform="rotate(-52.987 335.603 163.004)" class="st0" d="M333.7 156.1h3.7v13.8h-3.7z"/><path class="st0" d="M361-.1h-4.4l3.6 1.7z"/><path transform="rotate(-21.778 225.735 102.083)" class="st0" d="M218.8 100.2h13.8v3.7h-13.8z"/><path class="st0" d="M446.1 134.1h3.7c0-1.5.5-2.8 1.4-3.9v-4.8c-3 1.7-5.1 5-5.1 8.7zM333.5 32c-5.5 0-10 4.5-10 10h3.7c0-3.4 2.8-6.2 6.2-6.2s6.2 2.8 6.2 6.2h3.7c.2-5.5-4.3-10-9.8-10zM381.6 195.4h31.6L397.4 168l-15.8 27.4zm6.5-3.8l9.3-16.1 9.3 16.1h-18.6z"/><path transform="rotate(-64.982 303.222 302.611)" class="st0" d="M301.3 295.7h3.7v13.8h-3.7z"/><path transform="rotate(-60.528 212.669 179.67)" class="st0" d="M205.8 177.8h13.8v3.7h-13.8z"/><path transform="rotate(-52.994 90.648 419.21)" class="st0" d="M88.8 412.3h3.7v13.8h-3.7z"/><path transform="rotate(-64.982 159.661 226.842)" class="st0" d="M157.8 220h3.7v13.8h-3.7z"/><path transform="rotate(-14.602 302.121 84.281)" class="st0" d="M300.3 77.4h3.7v13.8h-3.7z"/><path class="st0" d="M264.1 465.1l3.4 3.9h5l-5.6-6.4z"/><path transform="rotate(-30.08 309.245 222.75)" class="st0" d="M302.4 220.9h13.8v3.7h-13.8z"/><path class="st0" d="M391.9 387.9c-3.4 0-6.2-2.8-6.2-6.2 0-3.4 2.8-6.2 6.2-6.2v-3.7c-5.5 0-10 4.5-10 10s4.5 10 10 10v-3.9zM233.7 341.1c-5.5 0-10 4.5-10 10h3.7c0-3.4 2.8-6.2 6.2-6.2 3.4 0 6.2 2.8 6.2 6.2h3.7c.2-5.5-4.3-10-9.8-10zM200.2 414c-6.5 0-11.9 5.3-11.9 11.9s5.3 11.9 11.9 11.9 11.9-5.3 11.9-11.9-5.4-11.9-11.9-11.9zm0 20c-4.5 0-8.1-3.6-8.1-8.1s3.6-8.1 8.1-8.1 8.1 3.6 8.1 8.1-3.7 8.1-8.1 8.1zM339.5 358.1c-1-1.1-2.2-2.4-4.2-2.7-2.4-.3-3.8 1-4.6 1.9-.4.4-.7.7-1.1.9-1.8.8-2.2.4-3.4-.6-1-.9-2.4-2.1-4.8-2.3-2.6-.2-4.1 1.3-5.1 2.2-1.1 1-1.3 1.3-2.7.6-.2-.1-.8-.5-1.2-.9-2.3-1.7-5.1-3.9-7.5-2.9-.8.3-1.8 1.2-2.1 3.1l3.7.5v-.1c1 .3 2.9 1.7 3.6 2.3.8.6 1.4 1 1.9 1.3 3.7 1.7 5.6-.1 6.9-1.3.9-.9 1.3-1.3 2.3-1.2 1.1.1 1.7.6 2.5 1.3 1.4 1.2 3.3 3 7.3 1.3 1-.4 1.7-1.1 2.3-1.7.8-.8 1-.9 1.6-.9.6.1 1.1.6 1.9 1.4 1 1.1 2.3 2.5 4.5 3l.7-3.7c-1 .1-1.6-.5-2.5-1.5zM222.5 36.2c1 .3 2.9 1.7 3.6 2.3.8.6 1.4 1 1.9 1.3 3.7 1.7 5.6-.1 6.9-1.3.9-.9 1.3-1.3 2.3-1.2 1.1.1 1.7.6 2.5 1.3 1.4 1.2 3.3 3 7.3 1.3 1-.4 1.7-1.1 2.3-1.7.8-.8 1-.9 1.6-.9.6.1 1.1.6 1.9 1.4 1 1.1 2.3 2.5 4.5 3l.7-3.7c-1-.2-1.6-.8-2.4-1.8-1-1.1-2.2-2.4-4.2-2.6-2.4-.3-3.7 1-4.6 1.9-.4.4-.7.7-1.1.9-1.8.8-2.2.4-3.4-.6-1-.9-2.4-2.1-4.8-2.3-2.6-.2-4.1 1.3-5.1 2.2-1.1 1-1.3 1.3-2.7.6-.2-.1-.8-.5-1.2-.9-2.3-1.7-5.1-3.9-7.5-2.9-.8.3-1.8 1.2-2.1 3.1l3.6.6zM163.9 463.1c.9.9 1 2.1.8 2.7-.2.6-.8 1-1.7 1.1-.4.1-1.7-.7-2.5-1.1-2.2-1.2-6.2-3.5-8.7.6-.5.8-.6 1.7-.5 2.6h3.8c-.1-.3-.1-.6-.1-.7.4-.7.6-1 3.5.7h8.4c.5-.5.9-1.1 1.2-1.8.8-2.2.2-4.8-1.5-6.6l-2.7 2.5zM309.7 444.3l27.4-15.8-27.4-15.8v31.6zm3.7-25.1l16.1 9.3-16.1 9.3v-18.6z"/><path transform="rotate(-64.982 65.491 33.129)" class="st0" d="M63.6 26.2h3.7V40h-3.7z"/><path transform="rotate(-41.453 85.31 250.82)" class="st0" d="M83.4 243.9h3.7v13.8h-3.7z"/><path class="st0" d="M89.4-.1h-5l1.2 2.2zM5.1 127.9c3.4 0 6.2 2.8 6.2 6.2H15c0-5.5-4.5-10-10-10-1.8 0-3.4.5-4.9 1.3v4.8c1.3-1.4 3-2.3 5-2.3zM17.1 30.6c6.6 0 11.9-5.3 11.9-11.9 0-6.6-5.3-11.9-11.9-11.9-6.6 0-11.9 5.3-11.9 11.9 0 6.6 5.4 11.9 11.9 11.9zm0-20c4.5 0 8.1 3.7 8.1 8.1 0 4.5-3.7 8.1-8.1 8.1S9 23.2 9 18.7s3.6-8.1 8.1-8.1zM18.2 180.4h3.7v18.4h-3.7zM170.7 122.8c-1-1.1-2.2-2.4-4.2-2.6-2.4-.3-3.8 1-4.6 1.9-.4.4-.7.7-1.1.9-1.8.8-2.2.4-3.4-.6-1-.9-2.4-2.1-4.8-2.3-2.6-.2-4.1 1.3-5.1 2.2-1.1 1-1.3 1.3-2.7.6-.2-.1-.8-.5-1.2-.9-2.3-1.7-5.1-3.9-7.5-2.9-.8.3-1.8 1.2-2.1 3.1l3.7.5v-.1c1 .3 2.9 1.7 3.6 2.3.8.6 1.4 1 1.9 1.3 3.7 1.7 5.6-.1 6.9-1.3.9-.9 1.3-1.3 2.3-1.2 1.1.1 1.7.6 2.5 1.3 1.4 1.2 3.3 3 7.3 1.3 1-.4 1.7-1.1 2.3-1.7.8-.8 1-.9 1.6-.9.6.1 1.1.6 1.9 1.4 1 1.1 2.3 2.5 4.5 3l.7-3.7c-1.1 0-1.7-.6-2.5-1.6zM86.6 188.4l27.4-15.8-27.4-15.8v31.6zm3.8-25.1l16.1 9.3-16.1 9.3v-18.6zM267.5-.1l5.7 6.4 2.8-2.5-3.5-3.9zM148.4 8c1 .5 2.3 1 3.6 1 .9 0 1.8-.2 2.6-.9 2.4-2 1.5-4.8.9-6.7-.1-.4-.3-1-.4-1.4h-3.8c.1.9.4 1.7.6 2.6.5 1.6.7 2.4.3 2.7-.3.3-1.4-.2-2.3-.6-2.2-1-5.5-2.4-8.7.7l2.6 2.7c1.2-1.4 2.3-1.1 4.6-.1zM163.3 1.6c1.5-.1 2.7-.7 3.7-1.6h-8.4.1c1.4.8 3 1.7 4.6 1.6zM397.7 307.8c1.2-1.5 1.2-3.7-.2-5-.4-.4-.9-.7-1.4-.9l-10.4-3.3c-.1 0-.4-.1-.4-.1l-3.4-10.8c-.2-.5-.5-1-.9-1.4-1.3-1.3-3.3-1.4-4.8-.4-.1.1-.3.2-.4.3l-16.2 16.2-.2.2c-1.2 1.5-1.2 3.7.2 5 .4.4.9.7 1.4.9l10.4 3.3c.1 0 .4.1.4.1l3.4 10.8c.2.5.5 1 .9 1.4 1.3 1.3 3.3 1.4 4.8.4.1-.1.3-.2.4-.3l16.2-16.2c.1-.1.1-.2.2-.2zm-24.9.4l-9.4-3c-.1 0-.2-.1-.2-.2-.3-.3-.3-.8 0-1.1l1.7-1.7 10.6-10.6 1.7-1.7c.3-.3.8-.3 1.1 0 .1.1.1.2.2.2l2.7 8.5c-1 .3-1.9.9-2.6 1.7-.9.9-1.4 2-1.7 3.2l-.7 2.5c-.1.5-.4.9-.7 1.3-.6.8-1.7 1.1-2.7.9zm21-1.9l-1.7 1.7-10.6 10.6-1.7 1.7c-.3.3-.8.3-1.1 0-.1-.1-.1-.2-.2-.2l-2.7-8.5c1-.3 1.9-.9 2.6-1.7.9-.9 1.4-2 1.7-3.2l.7-2.5c.1-.5.4-.9.7-1.3.7-.8 1.8-1.1 2.8-.8l9.4 3c.1 0 .2.1.2.2.2.2.2.7-.1 1zM130.7 59.6zM134 80.7c.4-.4.7-.9.9-1.4l3.3-10.4c0-.1.1-.4.1-.4l10.8-3.4c.5-.2 1-.5 1.4-.9 1.3-1.3 1.4-3.3.4-4.8-.1-.1-.2-.3-.3-.4l-16.2-16.2-.2-.2c-1.5-1.2-3.7-1.1-5 .2-.4.4-.7.9-.9 1.4L125 54.6c0 .1-.1.4-.1.4l-10.8 3.4c-.5.2-1 .5-1.4.9-1.3 1.3-1.4 3.3-.4 4.8.1.1.2.3.3.4l16.2 16.2.2.2c1.5 1.3 3.7 1.2 5-.2zm-5.4-24.6l3-9.4c0-.1.1-.2.2-.2.3-.3.8-.3 1.1 0l1.7 1.7 10.6 10.6 1.7 1.7c.3.3.3.8 0 1.1-.1.1-.2.1-.2.2l-8.5 2.7c-.3-1-.9-1.9-1.7-2.6-.9-.9-2-1.4-3.2-1.7l-2.5-.7c-.5-.1-.9-.4-1.3-.7-.8-.6-1.1-1.7-.9-2.7zm.1 19.3l-10.6-10.6-1.7-1.7c-.3-.3-.3-.8 0-1.1.1-.1.2-.1.2-.2l8.5-2.7c.3 1 .9 1.9 1.7 2.6.9.9 2 1.4 3.2 1.7l2.5.7c.5.1.9.4 1.3.7.8.7 1.1 1.8.8 2.8l-3 9.4c0 .1-.1.2-.2.2-.3.3-.8.3-1.1 0l-1.6-1.8zM349.7 120.6h23.5c1.9-.2 3.4-1.8 3.5-3.8 0-.6-.1-1.1-.3-1.6l-5.1-9.8c0-.1-.2-.3-.2-.4l5.3-10.2c.2-.5.4-1 .3-1.6 0-1.9-1.3-3.4-3.1-3.7-.2 0-.3-.1-.5-.1h-23.5c-1.9.2-3.4 1.8-3.5 3.8 0 .6.1 1.1.3 1.6l5.1 9.8c0 .1.2.3.2.4l-5.3 10.2c-.2.5-.4 1-.3 1.6 0 1.9 1.3 3.4 3.1 3.7.1.1.3.1.5.1zm.7-26.3c0-.1-.1-.2-.1-.3 0-.4.4-.8.8-.8h20.2c.4 0 .8.4.8.8 0 .1 0 .2-.1.3l-4.2 8.1c-.9-.5-2-.7-3.1-.7-1.3 0-2.5.4-3.5 1.1l-2.3 1.3c-.4.2-.9.4-1.4.4-1.1 0-2.1-.5-2.6-1.4l-4.5-8.8zm.1 21.5l4.2-8.1c.9.5 2 .7 3.1.7 1.3 0 2.5-.4 3.5-1.1l2.3-1.3c.4-.2.9-.4 1.4-.4 1.1 0 2.1.5 2.6 1.4l4.6 8.8c0 .1.1.2.1.3 0 .4-.4.8-.8.8h-20.2c-.4 0-.8-.4-.8-.8-.1-.2-.1-.3 0-.3zM156 391.4c1.9-.2 3.4-1.8 3.5-3.8 0-.6-.1-1.1-.3-1.6l-5.1-9.8c0-.1-.2-.3-.2-.4l5.3-10.2c.2-.5.4-1 .3-1.6 0-1.9-1.3-3.4-3.1-3.7-.2 0-.3-.1-.5-.1h-23.5c-1.9.2-3.4 1.8-3.5 3.8 0 .6.1 1.1.3 1.6l5.1 9.8c0 .1.2.3.2.4l-5.3 10.2c-.2.5-.4 1-.3 1.6 0 1.9 1.3 3.4 3.1 3.7.2 0 .3.1.5.1H156zm-22.7-26.3c0-.1-.1-.2-.1-.3 0-.4.4-.8.8-.8h20.2c.4 0 .8.4.8.8 0 .1 0 .2-.1.3l-4.2 8.1c-.9-.5-2-.7-3.1-.7-1.3 0-2.5.4-3.5 1.1l-2.3 1.3c-.4.2-.9.4-1.4.4-1.1 0-2.1-.5-2.6-1.4l-4.5-8.8zm21 22.5h-20.2c-.4 0-.8-.4-.8-.8 0-.1 0-.2.1-.3l4.2-8.1c.9.5 2 .7 3.1.7 1.3 0 2.5-.4 3.5-1.1l2.3-1.3c.4-.2.9-.4 1.4-.4 1.1 0 2.1.5 2.6 1.4l4.6 8.8c0 .1.1.2.1.3-.1.4-.4.8-.9.8zM246.5 240.2zM261.5 254.9c0-.2.1-.3.1-.5v-23.7-.3c-.2-2-1.8-3.5-3.9-3.5-.6 0-1.2.1-1.7.4l-10.1 5.2c-.1 0-.3.2-.4.2l-10.5-5.4c-.5-.2-1.1-.4-1.7-.4-1.9 0-3.5 1.4-3.8 3.2 0 .2-.1.3-.1.5v24c.2 2 1.8 3.5 3.9 3.5.6 0 1.2-.1 1.7-.4l10.1-5.2c.1-.1.3-.2.4-.2l10.5 5.4c.5.2 1.1.4 1.7.4 1.9-.1 3.4-1.4 3.8-3.2zm-17.9-6l-9 4.7c-.1 0-.2.1-.3.1-.4 0-.8-.4-.8-.8v-20.7c0-.4.4-.8.8-.8.1 0 .2 0 .3.1l8.3 4.3c-.5 1-.7 2.1-.7 3.2 0 1.3.4 2.5 1.1 3.6l1.3 2.3c.3.4.4.9.4 1.4.1 1-.5 2-1.4 2.6zm14 1.3v2.5c0 .4-.4.8-.8.8-.1 0-.2 0-.3-.1l-8.3-4.3c.5-1 .7-2.1.7-3.2 0-1.3-.4-2.5-1.1-3.6l-1.3-2.3c-.3-.4-.4-.9-.4-1.4 0-1.1.5-2.1 1.4-2.7l9-4.7c.1 0 .2-.1.3-.1.4 0 .8.4.8.8v18.3z"/><path transform="rotate(-60.541 261.806 412.32)" class="st0" d="M254.9 410.4h13.8v3.7h-13.8z"/><path class="st0" d="M57.3 353.3H61V371h-3.7zM199.4 287.5c2.3-1.3 3-4.2 1.7-6.5s-4.2-3-6.5-1.7-3 4.2-1.7 6.5c1.4 2.3 4.3 3 6.5 1.7zM264.6 164.9c2.4 1 5.2-.1 6.2-2.6 1-2.4-.1-5.2-2.6-6.2s-5.2.1-6.2 2.6c-1 2.4.1 5.2 2.6 6.2zM58 102.1c-3.4 0-6.2-2.8-6.2-6.2s2.8-6.2 6.2-6.2V86c-5.5 0-10 4.5-10 10s4.5 10 10 10v-3.9z"/><path transform="rotate(-60.528 412.564 53.542)" class="st0" d="M405.9 51.7h13.3v3.6h-13.3z"/></svg>